name rise49.8558peak67.6521fall70.3087.mot
datacolumns 19
datarows 29
range 23.39991800000000 23.44657700000000
endheader
time	ground_force1_vx	ground_force1_vy	ground_force1_vz	ground_force1_px	ground_force1_py	ground_force1_pz	ground_force2_vx	ground_force2_vy	ground_force2_vz	ground_force2_px	ground_force2_py	ground_force2_pz	ground_torque1_x	ground_torque1_y	ground_torque1_z	ground_torque2_x	ground_torque2_y	ground_torque2_z	
23.39991800000000	-4.54685800000000	40.28792700000000	-5.74221300000000	0.36211000000000	0.00000000000000	0.09913100000000	-49.79969600000000	796.09337700000003	-63.76737400000000	0.16293800000000	0.00000000000000	-0.08880800000000	0.00000000000000	-4.35124500000000	0.00000000000000	0.00000000000000	-27.41802100000000	0.00000000000000	
23.40157400000000	-4.96273000000000	47.12679700000000	-6.45802100000000	0.36497700000000	0.00000000000000	0.09987800000000	-50.39258600000000	793.70757600000002	-63.45085400000000	0.16187000000000	0.00000000000000	-0.08874000000000	0.00000000000000	-4.93869500000000	0.00000000000000	0.00000000000000	-27.30240600000000	0.00000000000000	
23.40324400000000	-5.28242000000000	54.02716800000000	-7.10741000000000	0.36781600000000	0.00000000000000	0.10055000000000	-50.99454600000000	791.22585700000002	-63.11155400000000	0.16080600000000	0.00000000000000	-0.08866700000000	0.00000000000000	-5.48862400000000	0.00000000000000	0.00000000000000	-27.18397400000000	0.00000000000000	
23.40491700000000	-5.49192900000000	60.89820600000000	-7.67459300000000	0.37063100000000	0.00000000000000	0.10115800000000	-51.60526300000000	788.64763300000004	-62.74944200000000	0.15974600000000	0.00000000000000	-0.08859000000000	0.00000000000000	-5.98913800000000	0.00000000000000	0.00000000000000	-27.06280200000000	0.00000000000000	
23.40658000000000	-5.58235300000000	67.67184700000000	-8.14884100000000	0.37342400000000	0.00000000000000	0.10171100000000	-52.22437900000000	785.97226300000000	-62.36451200000000	0.15869100000000	0.00000000000000	-0.08850800000000	0.00000000000000	-6.43184300000000	0.00000000000000	0.00000000000000	-26.93895800000000	0.00000000000000	
23.40824800000000	-5.54984400000000	74.30481899999999	-8.52455900000000	0.37619500000000	0.00000000000000	0.10221600000000	-52.85148900000000	783.19904499999996	-61.95677900000000	0.15764400000000	0.00000000000000	-0.08842100000000	0.00000000000000	-6.81198800000000	0.00000000000000	0.00000000000000	-26.81251200000000	0.00000000000000	
23.40992100000000	-5.39516400000000	80.77828700000001	-8.80095200000000	0.37894500000000	0.00000000000000	0.10268000000000	-53.48613700000000	780.32721600000002	-61.52628100000000	0.15660600000000	0.00000000000000	-0.08833000000000	0.00000000000000	-7.12828200000000	0.00000000000000	0.00000000000000	-26.68352700000000	0.00000000000000	
23.41157700000000	-5.12294900000000	87.09553800000000	-8.98133600000000	0.38167300000000	0.00000000000000	0.10310900000000	-54.12782100000000	777.35595200000000	-61.07308000000000	0.15557800000000	0.00000000000000	-0.08823400000000	0.00000000000000	-7.38246400000000	0.00000000000000	0.00000000000000	-26.55206400000000	0.00000000000000	
23.41325400000000	-4.74078400000000	93.27826000000000	-9.07224800000000	0.38437900000000	0.00000000000000	0.10350600000000	-54.77599100000000	774.28436399999998	-60.59726200000000	0.15456200000000	0.00000000000000	-0.08813300000000	0.00000000000000	-7.57869500000000	0.00000000000000	0.00000000000000	-26.41817700000000	0.00000000000000	
23.41491700000000	-4.25820700000000	99.36193500000000	-9.08243900000000	0.38706200000000	0.00000000000000	0.10387500000000	-55.43004500000000	771.11150099999998	-60.09893800000000	0.15356000000000	0.00000000000000	-0.08802600000000	0.00000000000000	-7.72285700000000	0.00000000000000	0.00000000000000	-26.28191800000000	0.00000000000000	
23.41658000000000	-3.68573000000000	105.39091100000000	-9.02186400000000	0.38972000000000	0.00000000000000	0.10422000000000	-56.08933400000000	767.83635000000004	-59.57824500000000	0.15257100000000	0.00000000000000	-0.08791400000000	0.00000000000000	-7.82182400000000	0.00000000000000	0.00000000000000	-26.14333200000000	0.00000000000000	
23.41824300000000	-3.03395800000000	111.41359600000000	-8.90075700000000	0.39235200000000	0.00000000000000	0.10454400000000	-56.75315900000000	764.45783400000005	-59.03534500000000	0.15159900000000	0.00000000000000	-0.08779700000000	0.00000000000000	-7.88278300000000	0.00000000000000	0.00000000000000	-26.00245800000000	0.00000000000000	
23.41991700000000	-2.31285800000000	117.47813499999999	-8.72883300000000	0.39495600000000	0.00000000000000	0.10484800000000	-57.42077200000000	760.97481500000004	-58.47042700000000	0.15064400000000	0.00000000000000	-0.08767400000000	0.00000000000000	-7.91263400000000	0.00000000000000	0.00000000000000	-25.85933100000000	0.00000000000000	
23.42157900000000	-1.53121000000000	123.62883300000000	-8.51468300000000	0.39753000000000	0.00000000000000	0.10513500000000	-58.09137300000000	757.38609699999995	-57.88371000000000	0.14970800000000	0.00000000000000	-0.08754600000000	0.00000000000000	-7.91752000000000	0.00000000000000	0.00000000000000	-25.71397800000000	0.00000000000000	
23.42324900000000	-0.69624900000000	129.90346500000001	-8.26534700000000	0.40007300000000	0.00000000000000	0.10540600000000	-58.76411600000000	753.69042800000000	-57.27543700000000	0.14879100000000	0.00000000000000	-0.08741200000000	0.00000000000000	-7.90248800000000	0.00000000000000	0.00000000000000	-25.56641900000000	0.00000000000000	
23.42491100000000	0.18650300000000	136.33152300000000	-7.98609400000000	0.40258300000000	0.00000000000000	0.10566400000000	-59.43810200000000	749.88650199999995	-56.64588200000000	0.14789500000000	0.00000000000000	-0.08727200000000	0.00000000000000	-7.87129300000000	0.00000000000000	0.00000000000000	-25.41666800000000	0.00000000000000	
23.42657900000000	1.11324300000000	142.93336400000001	-7.68036600000000	0.40505700000000	0.00000000000000	0.10590900000000	-60.11238300000000	745.97296200000005	-55.99534800000000	0.14702200000000	0.00000000000000	-0.08712700000000	0.00000000000000	-7.82633300000000	0.00000000000000	0.00000000000000	-25.26473200000000	0.00000000000000	
23.42824300000000	2.08175700000000	149.72016099999999	-7.34987900000000	0.40749300000000	0.00000000000000	0.10614300000000	-60.78596100000000	741.94840799999997	-55.32416600000000	0.14617100000000	0.00000000000000	-0.08697500000000	0.00000000000000	-7.76869800000000	0.00000000000000	0.00000000000000	-25.11060800000000	0.00000000000000	
23.42992000000000	3.09118100000000	156.69451000000001	-6.99483000000000	0.40989100000000	0.00000000000000	0.10636600000000	-61.45779000000000	737.81139599999995	-54.63269900000000	0.14534400000000	0.00000000000000	-0.08681800000000	0.00000000000000	-7.69830600000000	0.00000000000000	0.00000000000000	-24.95428800000000	0.00000000000000	
23.43158200000000	4.14170800000000	163.85153299999999	-6.61418900000000	0.41224700000000	0.00000000000000	0.10658000000000	-62.12677300000000	733.56044599999996	-53.92133900000000	0.14454200000000	0.00000000000000	-0.08665500000000	0.00000000000000	-7.61411000000000	0.00000000000000	0.00000000000000	-24.79575300000000	0.00000000000000	
23.43324300000000	5.23425100000000	171.18029700000000	-6.20602600000000	0.41456100000000	0.00000000000000	0.10678600000000	-62.79176600000000	729.19404899999995	-53.19050900000000	0.14376600000000	0.00000000000000	-0.08648600000000	0.00000000000000	-7.51433200000000	0.00000000000000	0.00000000000000	-24.63497900000000	0.00000000000000	
23.43493000000000	6.37011900000000	178.66538600000001	-5.76785300000000	0.41682900000000	0.00000000000000	0.10698400000000	-63.45157600000000	724.71066800000006	-52.44066300000000	0.14301600000000	0.00000000000000	-0.08631100000000	0.00000000000000	-7.39672100000000	0.00000000000000	0.00000000000000	-24.47193200000000	0.00000000000000	
23.43658300000000	7.55070400000000	186.28848600000001	-5.29694600000000	0.41905100000000	0.00000000000000	0.10717500000000	-64.10496400000000	720.10875099999998	-51.67228800000000	0.14229300000000	0.00000000000000	-0.08613000000000	0.00000000000000	-7.25880000000000	0.00000000000000	0.00000000000000	-24.30656900000000	0.00000000000000	
23.43824900000000	8.77722100000000	194.02985699999999	-4.79062900000000	0.42122300000000	0.00000000000000	0.10735900000000	-64.75064500000001	715.38673400000005	-50.88589800000000	0.14159700000000	0.00000000000000	-0.08594300000000	0.00000000000000	-7.09808700000000	0.00000000000000	0.00000000000000	-24.13884100000000	0.00000000000000	
23.43992100000000	10.05049600000000	201.86961099999999	-4.24651200000000	0.42334500000000	0.00000000000000	0.10753800000000	-65.38728800000000	710.54305299999999	-50.08204400000000	0.14093000000000	0.00000000000000	-0.08575000000000	0.00000000000000	-6.91228100000000	0.00000000000000	0.00000000000000	-23.96868700000000	0.00000000000000	
23.44157800000000	11.37081400000000	209.78873899999999	-3.66266200000000	0.42541500000000	0.00000000000000	0.10771100000000	-66.01352300000001	705.57614799999999	-49.26130300000000	0.14029100000000	0.00000000000000	-0.08555100000000	0.00000000000000	-6.69940700000000	0.00000000000000	0.00000000000000	-23.79604300000000	0.00000000000000	
23.44324200000000	12.73783000000000	217.76986199999999	-3.03772300000000	0.42743100000000	0.00000000000000	0.10787900000000	-66.62793400000000	700.48447799999997	-48.42428700000000	0.13968000000000	0.00000000000000	-0.08534700000000	0.00000000000000	-6.45791600000000	0.00000000000000	0.00000000000000	-23.62083200000000	0.00000000000000	
23.44491300000000	14.15053300000000	225.79770300000001	-2.37096900000000	0.42939100000000	0.00000000000000	0.10804200000000	-67.22906999999999	695.26652899999999	-47.57163700000000	0.13909800000000	0.00000000000000	-0.08513600000000	0.00000000000000	-6.18674000000000	0.00000000000000	0.00000000000000	-23.44297500000000	0.00000000000000	
23.44657700000000	15.60725400000000	233.85930099999999	-1.66231800000000	0.43129300000000	0.00000000000000	0.10820100000000	-67.81544300000000	689.92082500000004	-46.70402300000000	0.13854600000000	0.00000000000000	-0.08492000000000	0.00000000000000	-5.88530700000000	0.00000000000000	0.00000000000000	-23.26238000000000	0.00000000000000	
